<mxfile host="www.draw.io" modified="2020-01-08T03:53:27.944Z" agent="Mozilla/5.0 (Windows NT 6.1; WOW64) AppleWebKit/537.36 (KHTML, like Gecko) Chrome/79.0.3945.88 Safari/537.36" etag="OiloLOq3XQeL1G3FXfpZ" version="12.4.9" type="github">
  <diagram id="JnsvD_CBXU-Z5nkuWE4w" name="第 1 页">
    <mxGraphModel dx="741" dy="554" grid="1" gridSize="10" guides="1" tooltips="1" connect="1" arrows="1" fold="1" page="1" pageScale="1" pageWidth="827" pageHeight="1169" math="0" shadow="0">
      <root>
        <mxCell id="0"/>
        <mxCell id="1" parent="0"/>
        <mxCell id="_83zlU_bsEWmDXr_LkDx-1" value="" style="rounded=1;whiteSpace=wrap;html=1;" parent="1" vertex="1">
          <mxGeometry x="170" y="130" width="120" height="60" as="geometry"/>
        </mxCell>
        <mxCell id="opibzfYZtkB8a10u-S0Q-1" value="" style="whiteSpace=wrap;html=1;aspect=fixed;" vertex="1" parent="1">
          <mxGeometry x="440" y="190" width="80" height="80" as="geometry"/>
        </mxCell>
      </root>
    </mxGraphModel>
  </diagram>
</mxfile>
